<svg id="Capa_1" enable-background="new 0 0 512 512" height="512" viewBox="0 0 512 512" width="512" xmlns="http://www.w3.org/2000/svg"><path d="m341.41 489h-170.82l24.89-95.57 14.52 3.78h92l14.52-3.78z" fill="#d1d1d1"/><path d="m341.41 489h-85.41v-91.79h46l14.52-3.78z" fill="#9ea5a5"/><path d="m512 325.78v-302.78h-512v302.78l27.557 36.53h454.443z" fill="#4a696e"/><g fill="#37494a"><path d="m512 325.78v-302.78h-256v339.31h226z"/><path d="m30 362.31v-309.31h452v309.31l30-36.53v-302.78h-512v302.78z"/><path d="m147 459h218v30h-218z"/></g><path d="m482 362.31 30-36.53v-302.78h-256v30h226z" fill="#27393c"/><path d="m256 459h109v30h-109z" fill="#27393c"/><path d="m0 325.78h512v86.43h-512z" fill="#eaf2f9"/><path d="m256 325.78h256v86.43h-256z" fill="#d1d1d1"/><path d="m241 154.31h30v171.473h-30z" fill="#60e3f4"/><path d="m256 154.31h15v171.473h-15z" fill="#28c5ea"/><path d="m176.53 189.31v34h-62.373v-47h-30v77h92.373v72.47h30v-136.47z" fill="#60e3f4"/><path d="m427.844 176.31h-30v47h-62.374v-34h-30v136.47h30v-72.47h92.374z" fill="#28c5ea"/><path d="m301.93 120.095c0 25.32-20.61 45.92-45.93 45.92s-45.93-20.6-45.93-45.92c0-25.33 20.61-45.93 45.93-45.93s45.93 20.6 45.93 45.93z" fill="#a9e5ea"/><circle cx="99.157" cy="151.237" fill="#a9e5ea" r="45.927"/><path d="m412.844 105.31c-25.324 0-45.928 20.603-45.928 45.927 0 25.325 20.604 45.928 45.928 45.928s45.927-20.603 45.927-45.928c0-25.324-20.603-45.927-45.927-45.927z" fill="#54deed"/><path d="m256 166.015v-91.85c25.32 0 45.93 20.6 45.93 45.93 0 25.32-20.61 45.92-45.93 45.92z" fill="#54deed"/></svg>