<svg id="Capa_1" enable-background="new 0 0 512 512" height="512" viewBox="0 0 512 512" width="512" xmlns="http://www.w3.org/2000/svg"><path d="m185.09 436.2h141.82v75.8h-141.82z" fill="#37494a"/><path d="m256 436.2h70.91v75.8h-70.91z" fill="#27393c"/><path d="m330.094 76.855h30v56.74h-30z" fill="#27393c"/><path d="m151.906 76.855h30v56.74h-30z" fill="#37494a"/><path d="m166.906 0c-25.324 0-45.928 20.603-45.928 45.927 0 25.325 20.604 45.928 45.928 45.928s45.927-20.603 45.927-45.928c0-25.324-20.603-45.927-45.927-45.927z" fill="#ffa001"/><path d="m345.094 0c-25.324 0-45.927 20.603-45.927 45.927 0 25.325 20.603 45.928 45.927 45.928s45.928-20.603 45.928-45.928c-.001-25.324-20.604-45.927-45.928-45.927z" fill="#f87f02"/><path d="m97.197 186.667h-77.197v147.333h77.197v-15h.001v-117.333h-.001z" fill="#4a696e"/><path d="m414.803 186.667v15h-.001v117.333h.001v15h77.197v-147.333z" fill="#37494a"/><path d="m75.03 118.6h361.94v347.6h-361.94z" fill="#60e3f4"/><path d="m256 118.6h180.97v347.6h-180.97z" fill="#28c5ea"/><path d="m339.245 337.535v128.665h97.723v-214.322z" fill="#059bc4"/><path d="m75.032 466.2h97.724v-128.666l-97.724-85.656z" fill="#38bfd6"/><path d="m207.64 328.47h96.72v75.2h-96.72z" fill="#fe4942"/><circle cx="187.5" cy="234.521" fill="#eaf2f9" r="37.834"/><circle cx="324.5" cy="234.521" fill="#d1d1d1" r="37.834"/><path d="m187.5 287.355c-29.132 0-52.833-23.701-52.833-52.833 0-29.133 23.701-52.834 52.833-52.834 29.133 0 52.834 23.701 52.834 52.834 0 29.132-23.701 52.833-52.834 52.833zm0-75.667c-12.59 0-22.833 10.243-22.833 22.834 0 12.59 10.243 22.833 22.833 22.833 12.591 0 22.834-10.243 22.834-22.833 0-12.591-10.243-22.834-22.834-22.834z" fill="#37494a"/><path d="m324.5 287.355c-29.133 0-52.834-23.701-52.834-52.833 0-29.133 23.701-52.834 52.834-52.834 29.132 0 52.833 23.701 52.833 52.834 0 29.132-23.701 52.833-52.833 52.833zm0-75.667c-12.591 0-22.834 10.243-22.834 22.834 0 12.59 10.243 22.833 22.834 22.833 12.59 0 22.833-10.243 22.833-22.833 0-12.591-10.243-22.834-22.833-22.834z" fill="#27393c"/><path d="m256 328.47h48.36v75.2h-48.36z" fill="#fe165e"/></svg>